<mxfile host="Electron" modified="2024-05-17T15:28:30.509Z" agent="Mozilla/5.0 (Windows NT 10.0; Win64; x64) AppleWebKit/537.36 (KHTML, like Gecko) draw.io/24.4.0 Chrome/120.0.6099.109 Electron/28.1.0 Safari/537.36" etag="be6jpezHfMReGGZ8j4GW" version="24.4.0" type="device" pages="3">
  <diagram id="r1cW9Qy5rZCnc5JwJftQ" name="HTQ-Data">
    <mxGraphModel dx="1227" dy="814" grid="1" gridSize="10" guides="1" tooltips="1" connect="1" arrows="1" fold="1" page="1" pageScale="1" pageWidth="827" pageHeight="1169" math="0" shadow="0">
      <root>
        <mxCell id="0" />
        <mxCell id="1" parent="0" />
        <mxCell id="Q0PuK2IEjYNuETIe_y6O-1" value="" style="edgeStyle=orthogonalEdgeStyle;rounded=0;orthogonalLoop=1;jettySize=auto;html=1;" parent="1" source="AhBAlUWz0eXs_37fpTmo-1" target="AhBAlUWz0eXs_37fpTmo-6" edge="1">
          <mxGeometry relative="1" as="geometry" />
        </mxCell>
        <mxCell id="AhBAlUWz0eXs_37fpTmo-1" value="&lt;font face=&quot;Verdana&quot;&gt;Problem Solving through Programming COM411&lt;/font&gt;" style="rounded=1;whiteSpace=wrap;html=1;fontSize=15;labelBackgroundColor=none;fillColor=#dae8fc;strokeColor=#6c8ebf;" parent="1" vertex="1">
          <mxGeometry x="180" y="100" width="240" height="80" as="geometry" />
        </mxCell>
        <mxCell id="AhBAlUWz0eXs_37fpTmo-2" value="&lt;div style=&quot;&quot;&gt;Systems Analysis &amp;amp; Design Work Based Project COM423&lt;br&gt;&lt;/div&gt;" style="rounded=1;whiteSpace=wrap;html=1;fontSize=15;align=center;fillColor=#dae8fc;strokeColor=#6c8ebf;" parent="1" vertex="1">
          <mxGeometry x="700" y="100" width="240" height="80" as="geometry" />
        </mxCell>
        <mxCell id="-mE9M0d5LDqC0eWjaK8f-2" value="" style="edgeStyle=orthogonalEdgeStyle;rounded=0;orthogonalLoop=1;jettySize=auto;html=1;" parent="1" source="AhBAlUWz0eXs_37fpTmo-3" target="AhBAlUWz0eXs_37fpTmo-5" edge="1">
          <mxGeometry relative="1" as="geometry" />
        </mxCell>
        <mxCell id="AhBAlUWz0eXs_37fpTmo-3" value="&lt;font face=&quot;Verdana&quot;&gt;Data Analysis, Tools and Application COM418&lt;/font&gt;" style="rounded=1;whiteSpace=wrap;html=1;fontSize=15;fillColor=#d5e8d4;strokeColor=#82b366;" parent="1" vertex="1">
          <mxGeometry x="440" y="210" width="240" height="80" as="geometry" />
        </mxCell>
        <mxCell id="Q0PuK2IEjYNuETIe_y6O-4" value="" style="edgeStyle=orthogonalEdgeStyle;rounded=0;orthogonalLoop=1;jettySize=auto;html=1;" parent="1" source="AhBAlUWz0eXs_37fpTmo-4" target="AhBAlUWz0eXs_37fpTmo-3" edge="1">
          <mxGeometry relative="1" as="geometry" />
        </mxCell>
        <mxCell id="AhBAlUWz0eXs_37fpTmo-4" value="" style="rounded=1;whiteSpace=wrap;html=1;fontSize=15;fillColor=#d5e8d4;strokeColor=#82b366;" parent="1" vertex="1">
          <mxGeometry x="180" y="210" width="240" height="80" as="geometry" />
        </mxCell>
        <mxCell id="AhBAlUWz0eXs_37fpTmo-5" value="&lt;div style=&quot;line-height: 1.2;&quot;&gt;Introduction to Databases&lt;br style=&quot;border-color: var(--border-color);&quot;&gt;&lt;span style=&quot;border-color: var(--border-color); font-family: Verdana; font-size: 14px; letter-spacing: -0.6px;&quot;&gt;COM417&amp;nbsp;&lt;/span&gt;&lt;br&gt;&lt;/div&gt;" style="rounded=1;whiteSpace=wrap;html=1;fontSize=15;align=center;fillColor=#d5e8d4;strokeColor=#82b366;" parent="1" vertex="1">
          <mxGeometry x="700" y="210" width="240" height="80" as="geometry" />
        </mxCell>
        <mxCell id="-mE9M0d5LDqC0eWjaK8f-1" value="" style="edgeStyle=orthogonalEdgeStyle;rounded=0;orthogonalLoop=1;jettySize=auto;html=1;" parent="1" source="AhBAlUWz0eXs_37fpTmo-6" target="AhBAlUWz0eXs_37fpTmo-2" edge="1">
          <mxGeometry relative="1" as="geometry" />
        </mxCell>
        <mxCell id="AhBAlUWz0eXs_37fpTmo-6" value="&lt;div style=&quot;&quot;&gt;&lt;span style=&quot;background-color: initial; letter-spacing: -0.6px;&quot;&gt;&lt;font style=&quot;font-size: 15px;&quot; face=&quot;Verdana&quot;&gt;Principles &amp;amp; Methods&lt;br&gt;of Data Analysis COM427&lt;/font&gt;&lt;/span&gt;&lt;/div&gt;" style="rounded=1;whiteSpace=wrap;html=1;fontSize=15;align=center;fillColor=#dae8fc;strokeColor=#6c8ebf;" parent="1" vertex="1">
          <mxGeometry x="440" y="100" width="240" height="80" as="geometry" />
        </mxCell>
        <mxCell id="QOqrDjpGhj_Eyvq6YrJ5-1" value="Level 4 - Data Analyst - HNC (HTQ)" style="text;whiteSpace=wrap;html=1;fontSize=24;fontFamily=Verdana;fontColor=#000000;" parent="1" vertex="1">
          <mxGeometry x="40" y="40" width="830" height="30" as="geometry" />
        </mxCell>
        <mxCell id="35p1qUXs-UMOGd6sHHHs-1" value="&lt;font face=&quot;Verdana&quot;&gt;Semester 1&lt;/font&gt;" style="rounded=1;whiteSpace=wrap;html=1;fontSize=15;labelBackgroundColor=none;fillColor=#dae8fc;strokeColor=#6c8ebf;" parent="1" vertex="1">
          <mxGeometry x="40" y="100" width="120" height="80" as="geometry" />
        </mxCell>
        <mxCell id="Q0PuK2IEjYNuETIe_y6O-3" value="" style="edgeStyle=orthogonalEdgeStyle;rounded=0;orthogonalLoop=1;jettySize=auto;html=1;" parent="1" source="35p1qUXs-UMOGd6sHHHs-2" target="AhBAlUWz0eXs_37fpTmo-4" edge="1">
          <mxGeometry relative="1" as="geometry" />
        </mxCell>
        <mxCell id="35p1qUXs-UMOGd6sHHHs-2" value="&lt;font face=&quot;Verdana&quot;&gt;Semester 2&lt;/font&gt;" style="rounded=1;whiteSpace=wrap;html=1;fontSize=15;labelBackgroundColor=none;fillColor=#d5e8d4;strokeColor=#82b366;" parent="1" vertex="1">
          <mxGeometry x="40" y="210" width="120" height="80" as="geometry" />
        </mxCell>
        <mxCell id="-IWVUMWyR6ScOYrPmAnT-1" value="" style="endArrow=classic;html=1;rounded=0;" parent="1" target="AhBAlUWz0eXs_37fpTmo-1" edge="1">
          <mxGeometry width="50" height="50" relative="1" as="geometry">
            <mxPoint x="160" y="140" as="sourcePoint" />
            <mxPoint x="210" y="90" as="targetPoint" />
          </mxGeometry>
        </mxCell>
        <mxCell id="Stw6UbdMb-DVK7XJep4s-1" value="&lt;font style=&quot;font-size: 16px;&quot;&gt;Applied Computing Project COM429&lt;/font&gt;" style="text;whiteSpace=wrap;html=1;align=center;" parent="1" vertex="1">
          <mxGeometry x="205" y="225" width="190" height="50" as="geometry" />
        </mxCell>
      </root>
    </mxGraphModel>
  </diagram>
  <diagram id="Nu17MRFszHenwDxZa_SN" name="HTQ-Cyber">
    <mxGraphModel dx="1418" dy="817" grid="1" gridSize="10" guides="1" tooltips="1" connect="1" arrows="1" fold="1" page="1" pageScale="1" pageWidth="827" pageHeight="1169" math="0" shadow="0">
      <root>
        <mxCell id="0" />
        <mxCell id="1" parent="0" />
        <mxCell id="_wxdTZemFXR3vv38vdPd-1" value="" style="edgeStyle=orthogonalEdgeStyle;rounded=0;orthogonalLoop=1;jettySize=auto;html=1;fontFamily=Verdana;fontSize=24;fontColor=#000000;" parent="1" source="_wxdTZemFXR3vv38vdPd-2" target="_wxdTZemFXR3vv38vdPd-10" edge="1">
          <mxGeometry relative="1" as="geometry" />
        </mxCell>
        <mxCell id="_wxdTZemFXR3vv38vdPd-2" value="&lt;font face=&quot;Verdana&quot;&gt;Problem Solving through Programming COM411&lt;/font&gt;" style="rounded=1;whiteSpace=wrap;html=1;fontSize=15;labelBackgroundColor=none;fillColor=#dae8fc;strokeColor=#6c8ebf;" parent="1" vertex="1">
          <mxGeometry x="180" y="100" width="240" height="80" as="geometry" />
        </mxCell>
        <mxCell id="_wxdTZemFXR3vv38vdPd-3" value="" style="edgeStyle=orthogonalEdgeStyle;rounded=0;orthogonalLoop=1;jettySize=auto;html=1;fontFamily=Verdana;fontSize=24;fontColor=#000000;" parent="1" source="_wxdTZemFXR3vv38vdPd-4" target="_wxdTZemFXR3vv38vdPd-7" edge="1">
          <mxGeometry relative="1" as="geometry" />
        </mxCell>
        <mxCell id="_wxdTZemFXR3vv38vdPd-4" value="&lt;div style=&quot;&quot;&gt;Cyber Security &lt;br&gt;Standards CTE403&lt;br&gt;&lt;/div&gt;" style="rounded=1;whiteSpace=wrap;html=1;fontSize=15;align=center;fillColor=#d5e8d4;strokeColor=#82b366;" parent="1" vertex="1">
          <mxGeometry x="180" y="210" width="240" height="80" as="geometry" />
        </mxCell>
        <mxCell id="_wxdTZemFXR3vv38vdPd-5" value="&lt;font face=&quot;Verdana&quot;&gt;Cyber Security Essentials COM415&lt;/font&gt;" style="rounded=1;whiteSpace=wrap;html=1;fontSize=15;fillColor=#d5e8d4;strokeColor=#82b366;" parent="1" vertex="1">
          <mxGeometry x="700" y="210" width="240" height="80" as="geometry" />
        </mxCell>
        <mxCell id="_wxdTZemFXR3vv38vdPd-6" value="" style="edgeStyle=orthogonalEdgeStyle;rounded=0;orthogonalLoop=1;jettySize=auto;html=1;fontFamily=Verdana;fontSize=24;fontColor=#000000;" parent="1" source="_wxdTZemFXR3vv38vdPd-7" target="_wxdTZemFXR3vv38vdPd-5" edge="1">
          <mxGeometry relative="1" as="geometry" />
        </mxCell>
        <mxCell id="_wxdTZemFXR3vv38vdPd-7" value="&lt;div style=&quot;line-height: 1.2;&quot;&gt;&lt;div style=&quot;&quot;&gt;&lt;span style=&quot;letter-spacing: 0.45px; background-color: initial;&quot;&gt;&lt;font style=&quot;font-size: 15px;&quot; face=&quot;Verdana&quot;&gt;Routing &amp;amp; Switching&lt;/font&gt;&lt;/span&gt;&lt;/div&gt;&lt;font style=&quot;font-size: 15px;&quot; face=&quot;Verdana&quot;&gt;&lt;div style=&quot;&quot;&gt;&lt;span style=&quot;letter-spacing: 0.45px; background-color: initial;&quot;&gt;COM414&lt;/span&gt;&lt;/div&gt;&lt;/font&gt;&lt;/div&gt;" style="rounded=1;whiteSpace=wrap;html=1;fontSize=15;fillColor=#d5e8d4;strokeColor=#82b366;align=center;" parent="1" vertex="1">
          <mxGeometry x="440" y="210" width="240" height="80" as="geometry" />
        </mxCell>
        <mxCell id="_wxdTZemFXR3vv38vdPd-8" value="&lt;font style=&quot;line-height: 1.2;&quot; face=&quot;Verdana&quot;&gt;&lt;span style=&quot;font-size: 14px; letter-spacing: -0.6px;&quot;&gt;Introduction to Networks &lt;br&gt;&amp;amp; Security&amp;nbsp;&lt;/span&gt;&lt;span style=&quot;font-size: 14px; letter-spacing: -0.6px;&quot;&gt;COM412&lt;br&gt;&lt;/span&gt;&lt;/font&gt;" style="rounded=1;whiteSpace=wrap;html=1;fontSize=15;align=center;fillColor=#dae8fc;strokeColor=#6c8ebf;" parent="1" vertex="1">
          <mxGeometry x="700" y="100" width="240" height="80" as="geometry" />
        </mxCell>
        <mxCell id="_wxdTZemFXR3vv38vdPd-9" value="" style="edgeStyle=orthogonalEdgeStyle;rounded=0;orthogonalLoop=1;jettySize=auto;html=1;fontFamily=Verdana;fontSize=24;fontColor=#000000;" parent="1" source="_wxdTZemFXR3vv38vdPd-10" target="_wxdTZemFXR3vv38vdPd-8" edge="1">
          <mxGeometry relative="1" as="geometry" />
        </mxCell>
        <mxCell id="_wxdTZemFXR3vv38vdPd-10" value="&lt;div style=&quot;&quot;&gt;&lt;font face=&quot;Verdana&quot;&gt;&lt;span style=&quot;letter-spacing: -0.6px;&quot;&gt;Network Applications&amp;nbsp;&lt;/span&gt;&lt;br&gt;&lt;/font&gt;&lt;/div&gt;&lt;span style=&quot;letter-spacing: -0.6px;&quot;&gt;&lt;font face=&quot;Verdana&quot;&gt;COM413&amp;nbsp;&lt;/font&gt;&lt;/span&gt;" style="rounded=1;whiteSpace=wrap;html=1;fontSize=15;align=center;fillColor=#dae8fc;strokeColor=#6c8ebf;" parent="1" vertex="1">
          <mxGeometry x="440" y="100" width="240" height="80" as="geometry" />
        </mxCell>
        <mxCell id="_wxdTZemFXR3vv38vdPd-11" value="Level 4 - Cyber Security Technologist (Cyber Security Engineer) - HNC" style="text;whiteSpace=wrap;html=1;fontSize=24;fontFamily=Verdana;fontColor=#000000;" parent="1" vertex="1">
          <mxGeometry x="40" y="40" width="890" height="30" as="geometry" />
        </mxCell>
        <mxCell id="_wxdTZemFXR3vv38vdPd-12" value="" style="edgeStyle=orthogonalEdgeStyle;rounded=0;orthogonalLoop=1;jettySize=auto;html=1;fontFamily=Verdana;fontSize=24;fontColor=#000000;" parent="1" source="_wxdTZemFXR3vv38vdPd-13" target="_wxdTZemFXR3vv38vdPd-2" edge="1">
          <mxGeometry relative="1" as="geometry" />
        </mxCell>
        <mxCell id="_wxdTZemFXR3vv38vdPd-13" value="&lt;font face=&quot;Verdana&quot;&gt;Semester 1&lt;/font&gt;" style="rounded=1;whiteSpace=wrap;html=1;fontSize=15;labelBackgroundColor=none;fillColor=#dae8fc;strokeColor=#6c8ebf;" parent="1" vertex="1">
          <mxGeometry x="40" y="100" width="120" height="80" as="geometry" />
        </mxCell>
        <mxCell id="_wxdTZemFXR3vv38vdPd-14" value="" style="edgeStyle=orthogonalEdgeStyle;rounded=0;orthogonalLoop=1;jettySize=auto;html=1;fontFamily=Verdana;fontSize=24;fontColor=#000000;" parent="1" source="_wxdTZemFXR3vv38vdPd-15" target="_wxdTZemFXR3vv38vdPd-4" edge="1">
          <mxGeometry relative="1" as="geometry" />
        </mxCell>
        <mxCell id="_wxdTZemFXR3vv38vdPd-15" value="&lt;font face=&quot;Verdana&quot;&gt;Semester 2&lt;/font&gt;" style="rounded=1;whiteSpace=wrap;html=1;fontSize=15;labelBackgroundColor=none;fillColor=#d5e8d4;strokeColor=#82b366;" parent="1" vertex="1">
          <mxGeometry x="40" y="210" width="120" height="80" as="geometry" />
        </mxCell>
      </root>
    </mxGraphModel>
  </diagram>
  <diagram name="HTQ-Networker" id="qI3KQl_N0VPNCJJPVRfV">
    <mxGraphModel dx="2245" dy="817" grid="1" gridSize="10" guides="1" tooltips="1" connect="1" arrows="1" fold="1" page="1" pageScale="1" pageWidth="827" pageHeight="1169" math="0" shadow="0">
      <root>
        <mxCell id="2MlQVC2h8RQYX3S5XoAh-0" />
        <mxCell id="2MlQVC2h8RQYX3S5XoAh-1" parent="2MlQVC2h8RQYX3S5XoAh-0" />
        <mxCell id="6ve8ImFsgFSizYkGH7qV-4" value="" style="edgeStyle=orthogonalEdgeStyle;rounded=0;orthogonalLoop=1;jettySize=auto;html=1;fontFamily=Verdana;fontSize=24;fontColor=#000000;" parent="2MlQVC2h8RQYX3S5XoAh-1" source="2MlQVC2h8RQYX3S5XoAh-2" target="2MlQVC2h8RQYX3S5XoAh-7" edge="1">
          <mxGeometry relative="1" as="geometry" />
        </mxCell>
        <mxCell id="2MlQVC2h8RQYX3S5XoAh-2" value="&lt;font face=&quot;Verdana&quot;&gt;Problem Solving through Programming COM411&lt;/font&gt;" style="rounded=1;whiteSpace=wrap;html=1;fontSize=15;labelBackgroundColor=none;fillColor=#dae8fc;strokeColor=#6c8ebf;" parent="2MlQVC2h8RQYX3S5XoAh-1" vertex="1">
          <mxGeometry x="120" y="80" width="240" height="80" as="geometry" />
        </mxCell>
        <mxCell id="6ve8ImFsgFSizYkGH7qV-7" value="" style="edgeStyle=orthogonalEdgeStyle;rounded=0;orthogonalLoop=1;jettySize=auto;html=1;fontFamily=Verdana;fontSize=24;fontColor=#000000;" parent="2MlQVC2h8RQYX3S5XoAh-1" source="2MlQVC2h8RQYX3S5XoAh-3" target="2MlQVC2h8RQYX3S5XoAh-5" edge="1">
          <mxGeometry relative="1" as="geometry" />
        </mxCell>
        <mxCell id="2MlQVC2h8RQYX3S5XoAh-3" value="&lt;div style=&quot;&quot;&gt;&lt;font style=&quot;font-size: 15px;&quot;&gt;Applied Computing Project COM429&lt;/font&gt;&lt;br&gt;&lt;/div&gt;" style="rounded=1;whiteSpace=wrap;html=1;fontSize=15;align=center;fillColor=#d5e8d4;strokeColor=#82b366;" parent="2MlQVC2h8RQYX3S5XoAh-1" vertex="1">
          <mxGeometry x="120" y="190" width="240" height="80" as="geometry" />
        </mxCell>
        <mxCell id="2MlQVC2h8RQYX3S5XoAh-4" value="&lt;font face=&quot;Verdana&quot;&gt;Cyber Security Essentials COM415&lt;/font&gt;" style="rounded=1;whiteSpace=wrap;html=1;fontSize=15;fillColor=#d5e8d4;strokeColor=#82b366;" parent="2MlQVC2h8RQYX3S5XoAh-1" vertex="1">
          <mxGeometry x="640" y="190" width="240" height="80" as="geometry" />
        </mxCell>
        <mxCell id="6ve8ImFsgFSizYkGH7qV-8" value="" style="edgeStyle=orthogonalEdgeStyle;rounded=0;orthogonalLoop=1;jettySize=auto;html=1;fontFamily=Verdana;fontSize=24;fontColor=#000000;" parent="2MlQVC2h8RQYX3S5XoAh-1" source="2MlQVC2h8RQYX3S5XoAh-5" target="2MlQVC2h8RQYX3S5XoAh-4" edge="1">
          <mxGeometry relative="1" as="geometry" />
        </mxCell>
        <mxCell id="2MlQVC2h8RQYX3S5XoAh-5" value="&lt;div style=&quot;line-height: 1.2;&quot;&gt;&lt;div style=&quot;&quot;&gt;&lt;span style=&quot;letter-spacing: 0.45px; background-color: initial;&quot;&gt;&lt;font style=&quot;font-size: 15px;&quot; face=&quot;Verdana&quot;&gt;Routing &amp;amp; Switching&lt;/font&gt;&lt;/span&gt;&lt;/div&gt;&lt;font style=&quot;font-size: 15px;&quot; face=&quot;Verdana&quot;&gt;&lt;div style=&quot;&quot;&gt;&lt;span style=&quot;letter-spacing: 0.45px; background-color: initial;&quot;&gt;COM414&lt;/span&gt;&lt;/div&gt;&lt;/font&gt;&lt;/div&gt;" style="rounded=1;whiteSpace=wrap;html=1;fontSize=15;fillColor=#d5e8d4;strokeColor=#82b366;align=center;" parent="2MlQVC2h8RQYX3S5XoAh-1" vertex="1">
          <mxGeometry x="380" y="190" width="240" height="80" as="geometry" />
        </mxCell>
        <mxCell id="2MlQVC2h8RQYX3S5XoAh-6" value="&lt;font style=&quot;line-height: 1.2;&quot; face=&quot;Verdana&quot;&gt;&lt;span style=&quot;font-size: 14px; letter-spacing: -0.6px;&quot;&gt;Introduction to Networks &lt;br&gt;&amp;amp; Security&amp;nbsp;&lt;/span&gt;&lt;span style=&quot;font-size: 14px; letter-spacing: -0.6px;&quot;&gt;COM412&lt;br&gt;&lt;/span&gt;&lt;/font&gt;" style="rounded=1;whiteSpace=wrap;html=1;fontSize=15;align=center;fillColor=#dae8fc;strokeColor=#6c8ebf;" parent="2MlQVC2h8RQYX3S5XoAh-1" vertex="1">
          <mxGeometry x="640" y="80" width="240" height="80" as="geometry" />
        </mxCell>
        <mxCell id="6ve8ImFsgFSizYkGH7qV-5" value="" style="edgeStyle=orthogonalEdgeStyle;rounded=0;orthogonalLoop=1;jettySize=auto;html=1;fontFamily=Verdana;fontSize=24;fontColor=#000000;" parent="2MlQVC2h8RQYX3S5XoAh-1" source="2MlQVC2h8RQYX3S5XoAh-7" target="2MlQVC2h8RQYX3S5XoAh-6" edge="1">
          <mxGeometry relative="1" as="geometry" />
        </mxCell>
        <mxCell id="2MlQVC2h8RQYX3S5XoAh-7" value="&lt;div style=&quot;&quot;&gt;&lt;font face=&quot;Verdana&quot;&gt;&lt;span style=&quot;letter-spacing: -0.6px;&quot;&gt;Network Applications&amp;nbsp;&lt;/span&gt;&lt;br&gt;&lt;/font&gt;&lt;/div&gt;&lt;span style=&quot;letter-spacing: -0.6px;&quot;&gt;&lt;font face=&quot;Verdana&quot;&gt;COM413&amp;nbsp;&lt;/font&gt;&lt;/span&gt;" style="rounded=1;whiteSpace=wrap;html=1;fontSize=15;align=center;fillColor=#dae8fc;strokeColor=#6c8ebf;" parent="2MlQVC2h8RQYX3S5XoAh-1" vertex="1">
          <mxGeometry x="380" y="80" width="240" height="80" as="geometry" />
        </mxCell>
        <mxCell id="6ve8ImFsgFSizYkGH7qV-0" value="Level 4 - Network Engineer - HNC" style="text;whiteSpace=wrap;html=1;fontSize=24;fontFamily=Verdana;fontColor=#000000;" parent="2MlQVC2h8RQYX3S5XoAh-1" vertex="1">
          <mxGeometry x="-20" y="20" width="530" height="30" as="geometry" />
        </mxCell>
        <mxCell id="6ve8ImFsgFSizYkGH7qV-3" value="" style="edgeStyle=orthogonalEdgeStyle;rounded=0;orthogonalLoop=1;jettySize=auto;html=1;fontFamily=Verdana;fontSize=24;fontColor=#000000;" parent="2MlQVC2h8RQYX3S5XoAh-1" source="6ve8ImFsgFSizYkGH7qV-1" target="2MlQVC2h8RQYX3S5XoAh-2" edge="1">
          <mxGeometry relative="1" as="geometry" />
        </mxCell>
        <mxCell id="6ve8ImFsgFSizYkGH7qV-1" value="&lt;font face=&quot;Verdana&quot;&gt;Semester 1&lt;/font&gt;" style="rounded=1;whiteSpace=wrap;html=1;fontSize=15;labelBackgroundColor=none;fillColor=#dae8fc;strokeColor=#6c8ebf;" parent="2MlQVC2h8RQYX3S5XoAh-1" vertex="1">
          <mxGeometry x="-20" y="80" width="120" height="80" as="geometry" />
        </mxCell>
        <mxCell id="6ve8ImFsgFSizYkGH7qV-6" value="" style="edgeStyle=orthogonalEdgeStyle;rounded=0;orthogonalLoop=1;jettySize=auto;html=1;fontFamily=Verdana;fontSize=24;fontColor=#000000;" parent="2MlQVC2h8RQYX3S5XoAh-1" source="6ve8ImFsgFSizYkGH7qV-2" target="2MlQVC2h8RQYX3S5XoAh-3" edge="1">
          <mxGeometry relative="1" as="geometry" />
        </mxCell>
        <mxCell id="6ve8ImFsgFSizYkGH7qV-2" value="&lt;font face=&quot;Verdana&quot;&gt;Semester 2&lt;/font&gt;" style="rounded=1;whiteSpace=wrap;html=1;fontSize=15;labelBackgroundColor=none;fillColor=#d5e8d4;strokeColor=#82b366;" parent="2MlQVC2h8RQYX3S5XoAh-1" vertex="1">
          <mxGeometry x="-20" y="190" width="120" height="80" as="geometry" />
        </mxCell>
      </root>
    </mxGraphModel>
  </diagram>
</mxfile>
